<svg id="Layer_1" data-name="Layer 1" xmlns="http://www.w3.org/2000/svg" viewBox="0 0 600 600"><defs><style>.cls-1{fill:#3d567e;}</style></defs><title>bhtp-logo-blue-clean</title><path class="cls-1" d="M437.44,437.44c-75.79,75.79-199.09,75.79-274.88,0s-75.79-199.09,0-274.88,199.09-75.78,274.88,0S513.23,361.65,437.44,437.44ZM167.92,167.93c-72.82,72.82-72.83,191.32,0,264.15s191.33,72.83,264.15,0,72.83-191.34,0-264.16S240.74,95.1,167.92,167.93Z"/><path class="cls-1" d="M501.62,501.62c-111.18,111.17-292.07,111.17-403.24,0s-111.17-292.06,0-403.24,292.07-111.17,403.25,0S612.79,390.45,501.62,501.62ZM103.7,103.7C-4.52,211.94-4.53,388.05,103.7,496.3s284.36,108.23,392.6,0,108.23-284.36,0-392.6S211.94-4.52,103.7,103.7Z"/><path class="cls-1" d="M203.92,500.51l21.32,8.87L223,514.87l-7.18-3-9.24,22.24-7-2.89L208.85,509l-7.21-3Z"/><path class="cls-1" d="M235.61,512.88l13.13,3.17c3,.78,6.83,1.73,8.82,5.28a10.06,10.06,0,0,1,.75,7c-1.42,5.86-5.78,6.34-7.94,6.6l3.92,13.28-8-2L243,534.49l-4.57-1.1-2.53,10.39-7.3-1.76Zm6,7.21-1.9,7.88,6,1.45c1,.22,4.4,1,5.34-2.93.9-3.72-1.75-4.49-3.27-4.9Z"/><path class="cls-1" d="M285.83,521.56l8.62,30.75-7.95-.63-1.11-4.9-11-.88-1.86,4.67-8-.64,13.48-29Zm-4.59,6.79c-.5,1.49-1,3-1.59,4.52-.82,2.19-2.23,5.61-3.1,7.8l7.59.6Z"/><path class="cls-1" d="M318.27,521.26l8-.45-8.7,30.5-7.62.43L298,522.4l8-.45,7.39,20.94Z"/><path class="cls-1" d="M335.77,519.25l21.69-4.67,1.21,5.68-14.36,3.1,1.14,5.32,13.41-2.89,1.21,5.56-13.42,2.88,1.5,7,15.66-3.36,1.24,5.77-23,4.94Z"/><path class="cls-1" d="M370.6,510.43l7-2.68,8.47,22.13,11-4.18,2.26,5.91-17.93,6.86Z"/><path class="cls-1" d="M416.23,489.14l9.89-6.9c4-2.81,7.62-5.32,11.94-3.73a11.48,11.48,0,0,1,4.91,4.08,10.89,10.89,0,0,1,1.85,4.42c.93,5.86-3.52,9.12-6.83,11.53l-4.06,2.84,5.61,8-6.16,4.3Zm9.32.23,5.2,7.45,3.69-2.58c2.29-1.6,5-3.62,2.38-7.41-2.5-3.58-5.59-1.42-7.37-.19Z"/><path class="cls-1" d="M445,467.8l9.7-9.39c2.3-2.15,5.13-4.84,9.18-4.63a10.11,10.11,0,0,1,6.33,3.14c4.2,4.34,2.28,8.26,1.34,10.24l13.3,3.78-5.95,5.75-11.71-3.54-3.39,3.27,7.45,7.69-5.41,5.23Zm9.3-1.2,5.64,5.82,4.46-4.3c.73-.77,3.14-3.23.37-6.1s-4.74-.91-5.9.15Z"/><path class="cls-1" d="M502.08,450.8c-5.67,7.64-14.75,7.63-21.71,2.46-6.53-4.82-9.64-13.54-3.9-21.29a16.35,16.35,0,0,1,4-3.87c8-5.48,16.4,0,18,1.21a16.25,16.25,0,0,1,6.68,12A14.38,14.38,0,0,1,502.08,450.8Zm-15.66-18.06a7.26,7.26,0,0,0-4.91,2.92c-2.69,3.66-1.21,8.34,3.15,11.59,5.74,4.25,10.24,2.61,12.33-.23s2.37-7.45-2.56-11.37C492,433.67,488.92,432.46,486.42,432.74Z"/><path class="cls-1" d="M490.32,413.33,501,392.83l5.26,2.75-3.59,6.89L524,413.58l-3.47,6.68-21.36-11.12-3.6,6.92Z"/><path class="cls-1" d="M505,383.48l7.24-21,5.49,1.91L513,378.32l5.14,1.78,4.49-13L528,369l-4.47,13,6.73,2.33,5.25-15.12,5.56,1.92-7.67,22.19Z"/><path class="cls-1" d="M542.37,331.12a15.51,15.51,0,0,1,4.2,5.39,14.79,14.79,0,0,1,1.08,8.71c-1.44,7.81-8.27,13.07-18.26,11.24-8.72-1.6-14.53-8.79-13-17.15a14,14,0,0,1,4.5-8.06,15,15,0,0,1,5.42-3l1.85,6.38a7.49,7.49,0,0,0-3.45,1.66,6.46,6.46,0,0,0-2.21,3.78c-.87,4.76,3.1,8.09,8,9,6.47,1.19,10.28-1.52,11-5.49s-1.67-5.87-3.2-7.19Z"/><path class="cls-1" d="M520.22,318.73l.67-23.09,5.94.17-.23,7.77,24.06.68-.21,7.51-24.06-.68-.23,7.81Z"/><path class="cls-1" d="M519.49,277.75l29.88-2.6.65,7.44-29.88,2.62Z"/><path class="cls-1" d="M545.77,247.34c2,9.3-4,16.13-12.43,18-7.93,1.73-16.54-1.66-18.58-11.08a16.46,16.46,0,0,1-.3-5.54c1.16-9.65,10.79-12.35,12.78-12.78a16.27,16.27,0,0,1,13.46,2.89A14.41,14.41,0,0,1,545.77,247.34Zm-23.88-.09a7.18,7.18,0,0,0-1,5.6c1,4.45,5.48,6.43,10.79,5.27,7-1.52,8.7-6,8-9.43s-4.06-6.68-10.25-5.54C526.24,243.69,523.31,245.19,521.89,247.25Z"/><path class="cls-1" d="M509.46,230.05l-2.75-6.81,7.83-10.15c3-3.78,4-4.94,5.92-7.24l-17.73,7.49-2.68-6.65,27.82-11.19,2.75,6.82-6.7,8.73a106.82,106.82,0,0,1-6.74,8.39l17.42-7.23,2.67,6.66Z"/><path class="cls-1" d="M91.38,443.93l-6.13-9.85a28.56,28.56,0,0,1-3.53-7A7.08,7.08,0,0,1,84.9,419a7.3,7.3,0,0,1,2.75-1.06c3.31-.46,5.33,1.68,6.48,2.87-.71-1.7-1.66-4-.95-6.36a6.71,6.71,0,0,1,2.94-3.79,8,8,0,0,1,8.79.39c2,1.39,3.42,3.37,5.23,6.3l6.69,10.75Zm1-9,5.3-3.3-3-4.8c-.93-1.42-2.47-3.72-5.1-2.08-2.46,1.52-1.24,3.72-.49,4.94Zm9.93-6.18,6.15-3.83-2.76-4.45c-1.36-2.09-3.16-4.83-6.08-3s-1.53,4.46-.77,5.77Z"/><path class="cls-1" d="M69.61,405.45l-8.33-20.56,5.4-2.18,5.52,13.63,5-2-5.16-12.73,5.29-2.13,5.14,12.71,6.62-2.67-6-14.85,5.47-2.21,8.82,21.77Z"/><path class="cls-1" d="M55.53,366.34l-2.85-13.19c-.62-3.09-1.41-6.92.92-10.24a10,10,0,0,1,6-3.73c5.89-1.28,8.22,2.44,9.39,4.27l10.25-9.3L81,342.24l-9.2,8.07,1,4.61,10.45-2.25L84.83,360Zm3.89-8.53,7.93-1.71L66,350c-.27-1-1.08-4.37-5-3.53-3.74.8-3.28,3.53-3,5.07Z"/><path class="cls-1" d="M47.89,322.59l-.26-7.13L59.86,315,47.22,304.26l-.33-9,11.51,10.2,18.44-12.14.31,8.45-13.3,8.51,5,4.41,8.8-.31.24,7.13Z"/><path class="cls-1" d="M69.18,278.93a9.11,9.11,0,0,0,2.7-2.55,12.28,12.28,0,0,0,2.2-5.53c.39-2.94-.67-5.66-2.73-5.93-2.35-.32-3.14,2.62-3.72,4.77-.43,1.62-.86,3.23-1.41,4.78-.61,1.75-2.75,7.78-9.15,6.92-7.67-1-9-8.15-8.34-13.29.92-6.85,4.75-10.12,7.4-12.38l3.19,6a13.34,13.34,0,0,0-2.79,2.63,10.71,10.71,0,0,0-2,4.66c-.4,3,1.09,4.65,2.52,4.84,2.28.3,2.95-2.18,3.28-3.41a56.25,56.25,0,0,1,3-8.86,7.41,7.41,0,0,1,8-4.16,10,10,0,0,1,6,3.2c2.75,3.11,3.07,7.52,2.5,11.69-1.12,8.37-5.43,11.18-7.83,12.74Z"/><path class="cls-1" d="M63.43,211.56,92,220.79l-2.31,7.15L77.49,224l-3.37,10.44,12.17,3.92L84,245.57l-28.54-9.22,2.33-7.2,10.31,3.33,3.36-10.43-10.31-3.33Z"/><path class="cls-1" d="M73.31,189.77l27.05,12.92-3.21,6.74L70.09,196.52Z"/><path class="cls-1" d="M80.83,175.21l7.34-11.34c1.74-2.62,3.9-5.87,7.9-6.57a10.12,10.12,0,0,1,6.89,1.62c5.05,3.28,4.06,7.55,3.6,9.68l13.81.69-4.49,7-12.22-.83-2.55,4,9,5.81L106,191.49Zm8.8-3.27,6.8,4.41,3.37-5.2c.54-.92,2.34-3.85-1-6s-4.82.17-5.7,1.47Z"/><path class="cls-1" d="M106.36,139.13l15-16.3,4.28,4-10,10.8,4,3.68L129,131.18l4.18,3.86-9.3,10.09,5.25,4.84L140,138.19l4.33,4-15.92,17.27Z"/><path class="cls-1" d="M174.28,82.62l16.13,25.28-6.34,4-6.87-10.79-9.24,5.9,6.88,10.78-6.38,4.07L152.33,96.62l6.37-4.06,5.83,9.13,9.24-5.89L168,86.67Z"/><path class="cls-1" d="M205.34,68.06,227,91.51l-7.36,3.07-3.23-3.87L206.25,95l.48,5L199.36,103l-1.24-32Zm-1,8.14c.24,1.56.44,3.17.64,4.74.27,2.33.57,6,.8,8.36l7-2.92Z"/><path class="cls-1" d="M224.71,61l22.39-5.72L248.56,61,241,62.94l6,23.32-7.29,1.86-6-23.33-7.57,1.94Z"/><path class="cls-1" d="M287.4,50.22l2.82,29.86-7.49.71-1.2-12.73-10.91,1,1.21,12.73-7.53.71-2.82-29.86L269,52l1,10.78,10.91-1-1-10.79Z"/><path class="cls-1" d="M320.66,51.3,329.46,82l-8-.59-1.12-4.9-11-.82-1.84,4.68-8-.59,13.31-29.08Zm-4.55,6.82c-.49,1.5-1,3-1.57,4.53-.8,2.2-2.2,5.63-3.05,7.82l7.57.57Z"/><path class="cls-1" d="M361.57,58.39c.09,3.36.19,6.7.36,10.07a76.4,76.4,0,0,1-.19,12.85c2.29-5.55,2.75-6.5,5.53-12.11,1.35-2.82,2.73-5.63,4.07-8.4l7.22,1.78L364,89.87,356.51,88c-.12-3.43-.19-6.86-.36-10.27A94,94,0,0,1,356,67.48a85.07,85.07,0,0,1-4.8,8.83L346,85.44l-7.5-1.85-.22-30.93,7.26,1.79c-.27,14.58-.31,16.19-1,22.71,2.5-5.5,3.06-6.55,6-12l4.61-8.4Z"/><path class="cls-1" d="M402.77,73.05l-2,31.9-7.31-3.22.56-5L384,92.3l-3.29,3.79-7.31-3.21,22.24-23ZM396.2,78c-1,1.25-2,2.52-3,3.74-1.5,1.81-4,4.58-5.49,6.36l7,3.06Z"/><path class="cls-1" d="M420.67,81.67l7.25,4.64-.09,12.14a13.51,13.51,0,0,1,2.25-1.24l8.65-4,7.19,4.6L427.85,105l-7.63,12L414,113l7.52-11.78Z"/><polygon class="cls-1" points="166.21 504.85 172.96 494.75 167.8 491.31 161.06 501.4 166.21 504.85"/><polygon class="cls-1" points="151.22 494.28 158.7 484.72 153.82 480.9 146.35 490.46 151.22 494.28"/><rect class="cls-1" x="132.8" y="472.95" width="12.13" height="6.2" transform="translate(-306.65 258.29) rotate(-47.69)"/><polygon class="cls-1" points="123.83 469.92 132.65 461.6 128.41 457.08 119.58 465.42 123.83 469.92"/><polygon class="cls-1" points="503.33 167.72 493.24 174.46 489.8 169.32 499.89 162.57 503.33 167.72"/><rect class="cls-1" x="480.01" y="150.94" width="12.14" height="6.19" transform="translate(8.26 332.04) rotate(-38.02)"/><rect class="cls-1" x="468.46" y="137.28" width="12.13" height="6.19" transform="translate(29.19 356.15) rotate(-42.33)"/><rect class="cls-1" x="455.92" y="124.53" width="12.13" height="6.2" transform="translate(52.13 376.1) rotate(-46.67)"/><path class="cls-1" d="M186,179.31h39.62v78.24c18-16.66,31.63-17,35.63-17,13.64,0,35.94,9.65,35.94,39.95v96.2c0,36.28-25.63,41.61-36.28,41.61-21,0-30-12.31-35.29-19.31v15.65H186ZM257.29,290.5c0-6,0-19.31-14.64-19.31-17.32,0-17.32,13.65-17.32,22v68.92c0,11,1,22.63,16.3,22.63,15.66,0,15.66-15,15.66-22.63Z"/><path class="cls-1" d="M308.36,179.31h38.95v78.57c6.66-7,16.31-17.31,34.63-17.31,12,0,35.61,6,35.61,40.28V414.67H378.27V293.49c0-8.65,0-21-14.65-21-10.65,0-15.65,7-15.65,18.31V414.67H308.36Z"/><path class="cls-1" d="M565,95.1a14.39,14.39,0,1,1,14.44-14.35A14.28,14.28,0,0,1,565,95.1Zm0-27.49A13.1,13.1,0,1,0,578.1,80.75,13.06,13.06,0,0,0,565,67.61Zm-.16,3.92A12.35,12.35,0,0,1,569,72a4.35,4.35,0,0,1,2.91,4.2c0,1.26-.48,3.48-3.72,4.29,1.74.73,2.27,1.78,2.59,3.8a15.88,15.88,0,0,0,1.37,5.42h-3.68a12.62,12.62,0,0,1-1-4c-.6-3.84-.85-4.2-5.41-4.2v8.17h-3.24V71.53Zm-2.62,7.4h2.66c1.34,0,3.89,0,3.89-2.51a2.33,2.33,0,0,0-1.3-2.14,9.16,9.16,0,0,0-3.19-.24h-2.06Z"/></svg>